<svg xmlns="http://www.w3.org/2000/svg" width="1100" height="96" viewBox="0 0 1100 96" role="img" aria-label="Decorative glass trajectory connecting study, physical prototyping, and software">
  <defs>
    <linearGradient id="rail" x1="0" y1="0" x2="1" y2="0">
      <stop stop-color="#55ddeb" stop-opacity="0"/>
      <stop offset=".18" stop-color="#55ddeb" stop-opacity=".55"/>
      <stop offset=".51" stop-color="#8d7bf7" stop-opacity=".66"/>
      <stop offset=".82" stop-color="#f083bd" stop-opacity=".54"/>
      <stop offset="1" stop-color="#f083bd" stop-opacity="0"/>
    </linearGradient>
    <radialGradient id="a" cx="35%" cy="25%"><stop stop-color="#e9feff"/><stop offset=".58" stop-color="#62dbe8" stop-opacity=".88"/><stop offset="1" stop-color="#39b9ce" stop-opacity=".55"/></radialGradient>
    <radialGradient id="b" cx="35%" cy="25%"><stop stop-color="#f2efff"/><stop offset=".58" stop-color="#9185f7" stop-opacity=".88"/><stop offset="1" stop-color="#7067dd" stop-opacity=".55"/></radialGradient>
    <radialGradient id="c" cx="35%" cy="25%"><stop stop-color="#fff0f7"/><stop offset=".58" stop-color="#f18abd" stop-opacity=".88"/><stop offset="1" stop-color="#d9669b" stop-opacity=".55"/></radialGradient>
    <filter id="glow" x="-70%" y="-100%" width="240%" height="300%"><feDropShadow dx="0" dy="5" stdDeviation="7" flood-color="#68738d" flood-opacity=".2"/></filter>
  </defs>
  <path d="M32 69C194 78 242 30 391 39c119 7 169 39 292 23 123-16 204-49 385-29" fill="none" stroke="url(#rail)" stroke-width="2.2" stroke-linecap="round"/>
  <path d="M66 75c147 2 220-31 332-27 124 5 174 32 289 20 127-13 213-42 350-31" fill="none" stroke="url(#rail)" stroke-width=".8" stroke-opacity=".42" stroke-linecap="round"/>
  <g fill="#9aa7bd" opacity=".36"><circle cx="128" cy="67" r="2"/><circle cx="167" cy="60" r="1.4"/><circle cx="930" cy="35" r="1.6"/><circle cx="971" cy="33" r="2"/></g>
  <g filter="url(#glow)">
    <path d="M264 38c3-18 18-28 36-26 17 2 29 15 27 32-1 18-15 29-33 28-20-1-34-15-30-34Z" fill="url(#a)" stroke="#fff" stroke-opacity=".84"/>
    <path d="M521 49c0-20 14-34 34-34 19 0 34 14 34 33 0 18-13 32-32 34-20 2-36-12-36-33Z" fill="url(#b)" stroke="#fff" stroke-opacity=".84"/>
    <path d="M777 49c2-19 17-31 36-29 18 2 30 16 28 34-2 18-17 29-35 28-19-2-31-15-29-33Z" fill="url(#c)" stroke="#fff" stroke-opacity=".84"/>
  </g>
  <g fill="none" stroke="#fff" stroke-width="3" stroke-linecap="round" stroke-linejoin="round">
    <path d="m278 38 18-9 18 9-18 9-18-9Zm7 6v9c7 5 15 5 22 0v-9"/>
    <path d="M539 56h34v10h-34zM545 56l5-13h12l6 13m-20 10-5 7m23-7 5 7"/><circle cx="547" cy="67" r="3.5"/><circle cx="566" cy="67" r="3.5"/>
    <path d="M797 57c4-4 4-13 0-18m9 22c8-8 8-20 0-28m9 34c12-12 12-28 0-40"/>
  </g>
</svg>
